<?xml version="1.0" encoding="UTF-8"?>
<svg xmlns="http://www.w3.org/2000/svg" xmlns:xlink="http://www.w3.org/1999/xlink" xmlns:svgjs="http://svgjs.com/svgjs" version="1.1" width="512" height="512" x="0" y="0" viewBox="0 0 128 128" style="enable-background:new 0 0 512 512" xml:space="preserve" class="">
  <g transform="matrix(1.1800000000000002,0,0,1.1800000000000002,-11.52018796920781,-11.520000171661394)">
    <path xmlns="http://www.w3.org/2000/svg" d="m98.869 12.6a1.75 1.75 0 0 0 -1.749-1.71h-66.241a1.75 1.75 0 0 0 -1.749 1.71c-.253 10.016-4.042 16.354-8.053 23.064-4.477 7.491-9.113 15.236-9.037 28.336.326 3.412-1.05 9.337 3.936 28.246 1.772 6.723 3.446 13.073 3.694 23.157a1.749 1.749 0 0 0 1.749 1.707h36.82a1.749 1.749 0 0 0 1.75-1.75v-36.228a23.119 23.119 0 0 0 4.011-4.932 23.181 23.181 0 0 0 4.01 4.936v36.224a1.75 1.75 0 0 0 1.75 1.75h36.82a1.749 1.749 0 0 0 1.749-1.707c.25-10.082 1.924-16.43 3.7-23.152 4.861-18.433 3.688-25.908 3.934-28.551 0-12.917-4.594-20.6-9.037-28.037-4.015-6.711-7.803-13.05-8.057-23.063zm9.772 78.762a94.934 94.934 0 0 0 -3.754 22.252h-33.378v-31.84a22.491 22.491 0 0 0 12.4 3.136 1.75 1.75 0 0 0 1.712-1.788 1.781 1.781 0 0 0 -1.787-1.712 18.624 18.624 0 0 1 -18.085-11.466v-18.354a1.75 1.75 0 1 0 -3.5 0v18.358a18.636 18.636 0 0 1 -18.082 11.462 1.75 1.75 0 0 0 -.075 3.5 22.5 22.5 0 0 0 12.4-3.135v31.835h-33.38a94.888 94.888 0 0 0 -3.752-22.257c-4.7-17.824-3.629-25.369-3.82-27.363-.07-12.129 4.112-19.126 8.541-26.534 3.852-6.441 7.827-13.092 8.472-23.066h62.894c.645 9.975 4.62 16.626 8.471 23.068 4.392 7.35 8.541 14.291 8.541 26.242-.316 3.386.986 9.442-3.818 27.658z" fill="#000000" data-original="#000000" style="" class=""/>
  </g>
</svg>
