<?xml version="1.0" standalone="no"?>
<!DOCTYPE svg PUBLIC "-//W3C//DTD SVG 20010904//EN"
 "http://www.w3.org/TR/2001/REC-SVG-20010904/DTD/svg10.dtd">
<svg version="1.0" xmlns="http://www.w3.org/2000/svg"
 width="700.000000pt" height="700.000000pt" viewBox="0 0 700.000000 700.000000"
 preserveAspectRatio="xMidYMid meet">
<metadata>
Created by potrace 1.14, written by Peter Selinger 2001-2017
</metadata>
<g transform="translate(0.000000,700.000000) scale(0.100000,-0.100000)"
fill="#000000" stroke="none">
<path d="M1335 6921 c-66 -20 -82 -53 -90 -184 -4 -60 -8 -116 -10 -125 -1
-10 -6 -44 -9 -77 -4 -33 -9 -67 -11 -75 -2 -8 -7 -30 -10 -47 -46 -276 -174
-575 -430 -1008 -190 -321 -214 -363 -290 -510 -180 -350 -288 -700 -321
-1040 -3 -38 -8 -83 -10 -100 -5 -38 -4 -609 1 -690 8 -151 20 -265 41 -415 5
-33 8 -52 20 -130 14 -88 78 -407 106 -520 16 -69 31 -132 33 -140 1 -8 33
-132 70 -275 37 -143 69 -271 72 -285 2 -14 9 -45 14 -70 6 -25 12 -54 15 -65
2 -11 11 -54 19 -95 25 -124 26 -128 41 -245 3 -22 7 -47 9 -55 2 -8 6 -44 10
-80 3 -36 8 -81 10 -100 7 -54 15 -175 20 -309 4 -78 11 -133 20 -150 32 -62
-37 -59 1285 -59 1065 0 1209 2 1238 15 68 32 64 -50 64 1257 l-1 1181 51 50
c57 56 167 195 190 239 l15 29 42 -61 c49 -72 122 -161 179 -218 l41 -40 -1
-1181 c0 -1306 -4 -1224 64 -1256 29 -13 175 -15 1228 -15 834 -1 1205 3 1230
10 68 22 79 48 85 210 5 123 7 162 21 303 3 28 7 70 9 95 2 25 7 63 10 85 4
22 8 54 11 70 2 17 6 41 9 55 2 14 6 41 9 60 3 19 19 100 36 180 17 80 33 156
36 170 3 14 32 131 66 260 33 129 62 246 65 259 2 14 6 28 8 31 5 7 71 296 79
345 3 17 14 75 25 130 11 55 23 120 26 145 4 25 9 52 10 60 7 38 16 98 20 135
5 41 15 115 20 150 3 18 12 134 20 260 5 72 5 644 1 679 -3 16 -7 59 -11 95
-38 419 -210 889 -494 1351 -63 101 -253 432 -295 512 -180 341 -269 654 -292
1018 -4 69 -11 114 -22 132 -35 60 119 57 -2227 56 -1182 0 -2159 -3 -2170 -7z
m4196 -243 c1 -13 3 -32 4 -43 1 -11 6 -54 10 -95 4 -41 8 -77 10 -80 2 -3 6
-26 10 -50 9 -68 63 -274 95 -367 84 -241 169 -411 403 -808 350 -593 458
-846 522 -1225 9 -52 18 -106 20 -118 24 -141 24 -846 1 -992 -3 -14 -7 -52
-11 -85 -5 -53 -20 -160 -40 -290 -19 -120 -93 -464 -140 -648 -29 -117 -74
-291 -98 -387 -25 -96 -48 -191 -51 -211 -3 -20 -8 -42 -10 -50 -6 -16 -54
-292 -62 -354 -2 -22 -7 -51 -9 -65 -5 -32 -12 -97 -30 -265 -2 -22 -7 -85
-10 -140 -4 -55 -8 -101 -9 -103 -5 -4 -2137 -3 -2144 2 -12 7 -8 2031 3 2033
6 1 51 -18 100 -42 193 -93 388 -139 605 -144 105 -2 118 -1 143 19 36 28 50
57 49 97 -3 79 -42 105 -160 108 -48 1 -116 6 -152 10 -389 44 -740 287 -919
635 l-49 95 0 606 c0 568 -1 609 -18 637 -40 69 -140 71 -188 5 -18 -25 -19
-52 -19 -637 l0 -611 -45 -89 c-161 -316 -455 -542 -802 -620 -88 -20 -158
-28 -267 -30 -121 -3 -154 -24 -166 -103 -4 -23 1 -42 17 -65 36 -55 55 -60
206 -54 240 9 442 66 680 193 7 4 6 -2034 -1 -2041 -5 -6 -2139 -9 -2144 -4
-2 2 -6 46 -9 98 -12 161 -37 399 -52 490 -2 14 -11 68 -19 120 -9 52 -17 104
-20 115 -43 222 -72 341 -139 585 -97 355 -188 813 -221 1115 -4 33 -9 74 -11
90 -18 139 -25 676 -11 850 20 258 75 494 170 736 85 217 192 416 522 969 98
165 242 489 294 663 39 129 75 310 87 427 4 36 8 72 10 80 1 8 3 25 3 38 l1
22 2030 0 2030 0 1 -22z"/>
</g>
</svg>
